<svg xmlns="http://www.w3.org/2000/svg" viewBox="0 0 811.44 953.74"><defs><style>.cls-1{font-size:249.47px;}.cls-1,.cls-2,.cls-4{fill:#1d1d1b;font-family:Lato-Black, Lato;font-weight:800;}.cls-2{font-size:245.45px;}.cls-3{fill:#010101;}.cls-4{font-size:132.39px;}.cls-5{letter-spacing:-0.02em;}.cls-6{fill:#e02614;}.cls-7{fill:#dd2e14;}.cls-8{fill:#df5f11;}.cls-9{fill:#e88202;}.cls-10{fill:#98d1cd;}.cls-11{fill:#f18907;}.cls-12{fill:#e63a12;}.cls-13{fill:#e73e17;}.cls-14{fill:#ee7714;}.cls-15{fill:#f2da4c;}.cls-16{fill:#ec6319;}.cls-17{fill:#c8e1bc;}.cls-18{fill:#ffd207;}.cls-19{fill:#f7e938;}.cls-20{fill:#f59c1a;}.cls-21{fill:#f3921b;}.cls-22{fill:#cbdc85;}.cls-23{fill:#8dc9a2;}.cls-24{fill:#a0ce9b;}.cls-25{fill:#a0cd8e;}.cls-26{fill:#ffce05;}.cls-27{fill:#f0d03b;}.cls-28{fill:#f6e63a;}.cls-29{fill:#c6d873;}.cls-30{fill:#f9b216;}.cls-31{fill:#b6ba95;}.cls-32{fill:#c3b367;}.cls-33{fill:#d3bf52;}.cls-34{fill:#f3931a;}.cls-35{fill:#f59a15;}.cls-36{fill:#f6a119;}.cls-37{fill:#ee761b;}.cls-38{fill:#ec6613;}.cls-39{fill:#bd5125;}.cls-40{fill:#e0710d;}.cls-41{fill:#f18619;}.cls-42{fill:#ee751b;}.cls-43{fill:#c23117;}.cls-44{fill:#d54415;}.cls-45{fill:#ec6419;}.cls-46{fill:#ee731c;}.cls-47{fill:#ed6919;}.cls-48{fill:#e95116;}.cls-49{fill:#e84e0f;}.cls-50{fill:#de1f14;}.cls-51{fill:#e74310;}.cls-52{fill:#eb6013;}</style></defs><title>Fichier 2</title><g id="Calque_2" data-name="Calque 2"><g id="Calque_1-2" data-name="Calque 1"><text class="cls-1" transform="translate(383.31 820.97) scale(1.17 1)">K</text><text class="cls-2" transform="translate(595.31 823.53) scale(0.99 1)">D</text><path id="path1657" class="cls-3" d="M257.85,820.44c-.44-.72.66-4.86,2.44-9.21,6.33-15.48,14.56-52,17.46-77.54,1.8-15.76.67-45.41-2.25-59.4-6.34-30.33-21.21-58.06-34.89-65.06-8.33-4.27-13.29-4.48-22.06-.94-14.1,5.7-20.05,10.29-38.05,29.35-18.9,20-27.8,36.17-34,61.66-3.61,14.9-4.77,17.79-6.47,16.08-1.4-1.42.13-10.14,4.74-27s10-31.05,20-52.64c8-17.19,12.67-29,23.54-59.76,6.65-18.79,32.21-68.12,52.55-101.43l6-9.85-11.53-6.07c-21.58-11.37-37.5-23.57-56.09-43-6.64-6.93-15.13-16.48-18.86-21.21-7.34-9.32-14.56-23.48-15.74-30.9-.85-5.4-1.54-4.66,13.85-15.1,22.25-15.1,51.07-26.21,84-32.38,31.85-6,53.36-14.77,90.79-37.19C350.63,268.48,362,259.6,370.39,250c7.06-8.11,32.13-30.51,45.7-40.83a216.4,216.4,0,0,1,58.46-30.75c4.82-1.61,20.85-4.84,36.23-7.31,28.81-4.63,38.55-6.93,51.68-12.22s19.82-9.16,30.56-17.69c20.43-16.21,58.59-43.73,65.87-47.49s25.56-17.08,36.22-26.44c6.72-5.91,13.73-10.93,18.55-13.28,8.76-4.29,20.88-6.66,25.31-4.94,5.19,2,14,23.59,14,34.32,0,3.55.81,4.85,6.12,9.9,7.09,6.74,9.54,11.62,11.34,22.59a49.77,49.77,0,0,1,0,17c-2.66,19.4-12.84,54.59-23.38,80.81-5.42,13.48-7.18,24.85-5.1,32.89,1.38,5.3,4,5.41,8.18.36,8.79-10.51,21.57-23.14,30-29.6l9.19-7.07,6.21,6.64c10.25,10.92,14.48,22.25,15.68,41.89a90.57,90.57,0,0,1-4.44,34.65c-5.28,15.79-12.33,27.48-38.34,63.65-34.56,48-39.69,56.37-49.61,80.59-17.2,42-23.45,83.19-20.22,133.39.55,8.65.5,13.09-.14,12.06-3.32-5.33-6.17-41.18-5.11-64.12.38-8.44,1.63-22.89,2.76-32.11,2.6-21.16,2.61-27.17,0-32-2.4-4.54-5.88-6-11.62-5-3.46.63-6,2.59-13.94,10.9-15,15.63-27.39,39.37-27.52,52.81,0,3.81-.72,6.31-2.25,8.22l-2.2,2.74.69-6c2.11-18.44,8.21-37.57,15.77-49.5,15-23.65,31.93-40.57,61.85-61.82,18-12.75,34.86-32.86,45.26-53.86,15.41-31.09,19.5-70.91,8.94-87-3.22-4.93-9.55-9.14-13.53-9-6.78.2-15.62,5-28.62,15.51-7.22,5.84-24.45,19.65-38.28,30.67s-25.92,21.24-26.86,22.7a117.55,117.55,0,0,0-5.82,13.38c-3.88,10.14-4.15,10.53-5,7.42-1.58-5.64-.71-24.65,1.66-36.38,4.45-22,13.43-42.77,24.64-56.94,18.89-23.89,29.43-41,33.39-54.17,4.31-14.32,9.49-27.54,17.66-45,15.33-32.8,15.7-54.09,1.08-60.91-4.8-2.23-5.08-2.93-2.81-7,2.72-4.82,1.62-13.11-2.07-15.6-2.2-1.48-6-.85-8.22,1.36-3.1,3.15-2.71,7.29,1,11.08,1.91,1.94,3,3.91,2.57,4.91s-4.09,3.45-8.33,5.64c-12.95,6.69-22.36,5.33-24-3.48a14.73,14.73,0,0,1,1-7.54c1.59-3.86,1.57-4-.37-2.92-3,1.61-8.33,8.56-10.91,14.14-1.24,2.68-3.87,13.31-5.84,23.61-5,26.34-5.59,28.36-11.5,40.81a190.18,190.18,0,0,1-24.15,37.8c-9.45,11.6-16.11,21.73-21.52,32.73-9.07,18.41-12.4,32.05-12.43,50.85,0,10.78-1.15,11.57-3.82,2.63-2.6-8.75-3.23-25.11-1.32-34.21,2.21-10.49,13.4-42.1,23-65,9.35-22.26,10.55-26.58,9.9-35.54-.44-6.07-.87-7.09-4.45-10.4-5.05-4.68-8.69-4.74-17.38-.26-13.51,7-26.83,19.57-32.93,31.16a87.61,87.61,0,0,1-5.57,9.32l-2.1,2.74,0-6.17c0-8.31-.91-8.88-11.42-7.51a115.48,115.48,0,0,0-30.55,7.93c-7.07,3-8.35,4-12.7,10.17-2.66,3.78-4.83,7.89-4.83,9.12s1.3,3.81,2.89,5.72c4,4.77,2.18,5.71-8.83,4.66-14.78-1.41-17.77-1-26.28,3.54-9.26,4.94-14,9.95-19.09,20.26a76.38,76.38,0,0,0-8.53,35.45c0,5.88-.38,10.3-.87,9.81s-2.8-8.63-5.16-18.07-5.1-18.94-6.11-21.08c-2.1-4.49-11.7-13.43-15.44-14.4s-9.65,1.23-18.58,7.19c-9.82,6.55-18.13,15-31.91,32.5-17.47,22.18-24.35,39.7-24.57,62.51-.14,13.86,1.22,20.55,6.63,32.62,2.1,4.68,3.52,8.81,3.16,9.18-1.37,1.39-4-.82-9.13-7.67-13.77-18.4-24.62-26.84-42-32.64-6.71-2.25-9.6-2.54-25.42-2.5-20,.05-33.65,2.24-52,8.33-24.14,8-38.94,18.77-46,33.4-2.82,5.86-3.16,7.71-3.15,17,0,9.51.32,11.08,3.6,18.08C191.8,416.55,214,439,233.6,449c6.1,3.11,20.47,7.86,27.15,9,8.22,1.36,20.42-4.6,30.54-14.93l4.69-4.78-.42-9.94c-.35-8.21-.95-11-3.47-16a65.52,65.52,0,0,0-19.69-23.43c-6.38-4.6-8.08-5.3-14.31-5.84q-13.57-1.18,4.68-5.07c10.32-2.19,19.75-1.69,26.7,1.42,7.38,3.3,21.61,13.18,34.43,23.9,12.54,10.5,20.09,14.61,32.88,17.91,15.85,4.09,26.64,2.46,25.09-3.78-.33-1.3-.92-7.77-1.31-14.36-1.95-32.42,8.21-70.49,23.25-87.17l5.39-6-2.62,6.19c-15.75,37.27-16.35,79.4-1.58,111.29,7.82,16.9,12.92,22.26,21.13,22.26,9.22,0,15.65-6.72,20.28-21.16,2-6.13,2.21-10,2.38-38.61.31-50.28,2.68-64.46,17.16-102.37,5-13.2,11.36-30,14.05-37.34,5.64-15.42,7.28-18.9,11.43-24.26,3.69-4.77,5.51-5.72,28.58-14.83,10.15-4,20.22-8.74,22.48-10.55,3.58-2.88,9.06-5.31,12-5.32.51,0-3.38,3.39-8.64,7.52-10.89,8.56-15.67,13.22-19.53,19.05-2.07,3.14-4,4.45-8.25,5.75-18.49,5.57-31.36,19.77-39.35,43.39-8.28,24.48-15,61.64-13.79,75.8,1.4,15.86,7.88,28.67,17.7,35,6.33,4.05,10.05,4.06,15.77,0s19.85-18.88,24.55-25.9c7-10.45,26-46.09,27.66-52,1.25-4.36,1.58-8.83,1.2-16.6-.6-12.47-2.49-16.73-9-20.4-4.56-2.55-17.25-5.08-21.31-4.24-1.33.28-4.57.8-7.19,1.16-4.11.57-4.58.44-3.44-1,.72-.88,5.78-3.83,11.24-6.55,20.51-10.22,28.89-21.8,43-59.38l4.12-11,0,5.72a35.72,35.72,0,0,1-2.09,11.21,136.49,136.49,0,0,0-4.42,16.76c-2,10-2.19,13.12-1.42,28.25,1.55,30.83,1.18,56.52-1,66.7-5.27,25-15,44.84-33,67.61-17.16,21.7-34.13,50.37-40.44,68.3-7.76,22.09-9.9,50.51-5.09,67.67,3.31,11.82,11.64,28.8,26,53,12.92,21.77,17.29,31.15,24.85,53.23,4.58,13.35,4.91,15.1,5.32,27.94.29,9.27-.05,15.66-1.05,19.74l-1.47,6-.65-4.94c-.36-2.71-1.19-10.25-1.86-16.76-2.19-21.28-8.56-38.66-21.2-57.86-9.53-14.48-21.05-26.55-37.85-39.65-34.25-26.71-62.29-61.61-80.26-99.88-6.22-13.26-8-18.82-8-24.76a8.08,8.08,0,0,0-2-5.78c-1.9-1.74-2.52-1.51-11.62,4.33-11.85,7.6-36.41,19.82-50.17,25a231.69,231.69,0,0,1-23.25,6.89c-11.09,2.61-15.44,3.07-30,3.15-19.56.12-17.25-1.59-19.32,14.37-1.52,11.8-.74,31.74,1.69,43.3,2.84,13.48,5.78,21.41,15.79,42.73,17.48,37.21,28.23,65.33,32,83.83,2.69,13.07,3.25,36,1.21,49.63a356.2,356.2,0,0,1-31.41,101.67c-7.72,16.17-9.53,19.06-10.71,17.13ZM595.31,611.39c-4.29-6.62-11.23-22.26-14.91-33.62C570.13,546.1,565,501.06,568.49,472.33c1.7-14.14,2.91-17.46,2.92-8,0,7.22,2.61,17,4.51,17s5.5-5.58,9.59-14.53a160,160,0,0,1,22.72-35.38c15.45-18,23-28,26.46-35.14,2-4.2,4.77-8.6,6-9.78l2.34-2.14L642,387.16c-2.57,6.87-10.15,20.95-15.87,29.47l-13,19.35c-22,32.86-33.31,81.38-28.41,122.06,1.39,11.55,5.65,29.17,9.28,38.43,4.71,12,5.52,21.47,1.28,14.93Z"/><text class="cls-4" transform="translate(41.22 930.04) scale(0.79 1)"><tspan class="cls-5">K</tspan><tspan x="91.21" y="0">ongo Dervilon</tspan></text><path class="cls-6" d="M242.41,8.75c-1.56-.5-1.72-5.19-1.32-6.45,1.73-5.38-3.13-.47-7.43,5.94C229.07,15.08,219,25.16,206.78,35.8l.45,18.08Z"/><path class="cls-7" d="M231.45,52.73a2.87,2.87,0,0,0,1.07-1.67c0-1.35-1-3,.25-4.18a8.8,8.8,0,0,0,2.2-5.44c0-1.85,1.93-4.45,4.48-6,3-1.83,7.27-5.29,7-7.42-.25-1.78-2.06-3.6-.45-5.78,2.1-2.82,2.41-4.19,1.11-4.73-1-.42-.67-7.29-.67-9.23s-2.39,1-4,.5h0L207.23,53.88Z"/><path class="cls-8" d="M220.07,61.94a32.92,32.92,0,0,1,6.52-5.79,25,25,0,0,0,4.86-3.42l-24.22,1.15Z"/><path class="cls-9" d="M209.34,75.21c2.29-2.85,4.75-6,7.33-9.27,1.05-1.35,2.22-2.72,3.4-4l-12.84-8.06Z"/><path class="cls-10" d="M172.41,187.24A4.49,4.49,0,0,0,176,183.4l-3.75,3.06Z"/><path class="cls-11" d="M192.37,89l3.75,1.61c2.71-2.74,7.41-8.23,13.22-15.44l-2.11-21.33Z"/><path class="cls-12" d="M191.65,48.32l-4,3.15.91,8.94Z"/><path class="cls-13" d="M207.23,53.88l-.45-18.08c-4.77,4.14-9.87,8.36-15.13,12.52l-3.11,12.09Z"/><polygon class="cls-14" points="188.54 60.41 192.37 89.04 207.23 53.88 188.54 60.41"/><path class="cls-15" d="M192.64,95.7c.65-.2,1.11-.49,1.11-.89,0-1-.77-2.23,0-2.23.32,0,1.15-.68,2.4-1.93L192.37,89Z"/><path class="cls-16" d="M187.63,51.47q-3.74,2.88-7.51,5.68l8.42,3.26Z"/><path class="cls-17" d="M176,183.4a5,5,0,0,0-1.44-3.75A31.58,31.58,0,0,0,168.9,176l3.38,10.44Z"/><path class="cls-18" d="M168.2,116.84c.48-1.71,1.74-2.57,3-2s2.5-.25,3-1.74,1.81-2.28,3-1.75a1.63,1.63,0,0,0,1.12.14l1-1.56h0c0-1.31,1.67-4.25,3.67-6.52s3.65-4.85,3.65-5.72c0-.52.48-1,1.21-1.27L192.37,89l-45.92-9.87-.55.32,9.72,50.13C159.22,127.37,167.56,119.15,168.2,116.84Z"/><path class="cls-19" d="M179.19,109.92l-1,1.56A1.46,1.46,0,0,0,179.19,109.92Z"/><path class="cls-19" d="M187.72,96.4a4.8,4.8,0,0,1,1.72-.3,12,12,0,0,0,3.2-.4L192.37,89Z"/><path class="cls-20" d="M188.54,60.41l-39.1,17-3,1.71L192.37,89Z"/><path class="cls-21" d="M180.12,57.15A319.89,319.89,0,0,1,152,76l-2.55,1.49,39.1-17Z"/><path class="cls-22" d="M172.28,186.46,168.9,176c-3.2-1.77-7.4-3.93-11.76-6l-1.26-.6-1.24,14Z"/><path class="cls-23" d="M148.46,215.71c3.67,2.33,7.21,1,7.21-2.67a2.61,2.61,0,0,1,.14-.85l-7.33,1.37Z"/><path class="cls-24" d="M154.64,183.4l17.1,20c1.43-1.92.74-5.44-2.17-10l-3.77-5.92h4.53a7.89,7.89,0,0,0,2.08-.26l-.13-.78Z"/><path class="cls-25" d="M148.48,213.56l7.33-1.37a2.9,2.9,0,0,1,2.84-1.84,4.21,4.21,0,0,0,3.83-2.64c.47-1.47,2.65-2.63,4.94-2.63,2.08,0,3.53-.58,4.32-1.65l-17.1-20Z"/><path class="cls-26" d="M134,134.93l3.23-5.21,4.17,2.95c3.42,2.42,4.38,2.52,5.38.58s1.47-1.91,2.37-.16,1.5,1.63,2.75-.43c.89-1.45,1.94-2.56,2.35-2.47a2.58,2.58,0,0,0,1.42-.57L145.9,79.49l-.47.26L119,129.9Z"/><path class="cls-27" d="M107.85,181.45l46.79,2-15.41-23.12c-7-4.51-11.34-8.48-11.77-11.13-.14-.83.35-2.58,1.23-4.69L119,129.9Z"/><path class="cls-28" d="M128.69,144.46a48,48,0,0,1,3.39-6.5l1.87-3-15-5Z"/><path class="cls-28" d="M155.88,169.42a163.38,163.38,0,0,1-16.65-9.14l15.41,23.12Z"/><polygon class="cls-29" points="154.64 183.4 107.85 181.45 148.48 213.56 154.64 183.4"/><path class="cls-30" d="M119,129.9l26.44-50.15c-20.35,11.58-28.08,14.14-32.73,9.36L97.4,93.77Z"/><path class="cls-31" d="M133.92,225.11l-5.27,4.18C131.42,229.9,132.46,229.1,133.92,225.11Z"/><path class="cls-31" d="M138.38,222.05c3.2,3.83,7,1.76,7-3.79a20.26,20.26,0,0,1,.09-2.32l-7.34,5.82Z"/><path class="cls-31" d="M146.88,214.82a11.53,11.53,0,0,1,1.56.88h0l0-2.15Z"/><path class="cls-32" d="M99.14,211.33l4.57,16.48a6.6,6.6,0,0,0,1.32.12c2,0,3.64.89,3.64,2,0,1.25,1.59,1.6,4.35.94,2.39-.58,4.75-.28,5.23.66h0a3.27,3.27,0,0,0,6-.68c.47-1.45,2.17-2,4.36-1.55l.08,0,5.27-4.18c.05-.15.11-.3.16-.46,1.7-4.84,2.08-5.2,4.06-2.89l7.34-5.82c.15-1.18.52-1.47,1.4-1.12l1.6-1.26Z"/><polygon class="cls-33" points="148.48 213.56 107.85 181.45 99.14 211.33 148.48 213.56"/><path class="cls-34" d="M112.7,89.11a18.21,18.21,0,0,1-3.38-5.68,29.9,29.9,0,0,0-5.11-8.21L97.4,93.77Z"/><path class="cls-35" d="M119,129.9l-42.26-.28c.08.18.15.36.22.55l6.36,10.56a24.24,24.24,0,0,0,1.88-2.45l4-5.86L91,138.85c1,3.53,1.38,7.9.9,9.71a12.68,12.68,0,0,1-1.94,3.15l17.93,29.74Z"/><path class="cls-36" d="M97.4,93.77,76.68,129.51a1.17,1.17,0,0,1,0,.11l42.26.28Z"/><path class="cls-37" d="M104.21,75.22c-2-2.25-4.13-3.66-5.82-3.68-3.57-.05-13.21,3.52-13.21,4.89,0,.69,1.48,2,3.3,3,2.42,1.27,3.17,2.92,2.79,6.13h0l6.13,8.22Z"/><path class="cls-38" d="M89.92,151.71A134.27,134.27,0,0,1,79.2,163.89c-8.46,8.65-11.06,12-11.36,15.11l40,2.45Z"/><path class="cls-38" d="M77.5,136.69c-.85,7,1.86,8.48,5.81,4L77,130.17A14.54,14.54,0,0,1,77.5,136.69Z"/><path class="cls-39" d="M93.07,221.94a5.34,5.34,0,0,0,3.81-1c2.2-1.41,2.84-.93,3.59,2.65.55,2.59,1.47,3.85,3.24,4.23l-4.57-16.48Z"/><path class="cls-40" d="M107.85,181.45l-40-2.45a8.31,8.31,0,0,0,0,1.41c.3,3,1.28,4.39,3,4.22,1.89-.18,2.57,1.08,2.57,4.73v.3l25.71,21.67Z"/><path class="cls-41" d="M63.84,97.94,76.2,128.59a8.79,8.79,0,0,1,.48.92L97.4,93.77Z"/><path class="cls-42" d="M97.4,93.77l-6.13-8.22c-1,8.91-5,10.84-12.51,6.14-3.15-2-8.1-3.9-14.69-5.74l-.23,12Z"/><path class="cls-43" d="M89.57,214.3c0,.34,0,.71,0,1.11,0,3.79,1.38,6.13,3.49,6.53l6.07-10.61Z"/><path class="cls-44" d="M73.43,189.66c.08,4.57,2,7.42,5.14,7.52.81,0,1.27,1.77,1,3.9-.76,6.53,2.36,11.5,6.44,10.28,2.87-.87,3.46-.56,3.54,2.94l9.57-3Z"/><path class="cls-45" d="M63.84,97.94l.23-12C59.23,84.59,53.49,83.27,46.93,82L40.62,93.35Z"/><path class="cls-46" d="M54,107.3c13.63,8.36,14.46,9.37,13.92,11.29-.32,1.17.59,2.13,2,2.13,2,0,2.23.47.85,2.11-2.55,3.07-2.15,4.72.92,3.76,1.82-.57,3.42.26,4.5,2L63.84,97.94Z"/><path class="cls-47" d="M40.62,93.35,40,98.76l3,1.86c4.37,2.64,8,4.84,11,6.68l9.86-9.36Z"/><path class="cls-48" d="M46.93,82l-4.08-.75-1.22-.22-1,12.3Z"/><path class="cls-49" d="M19.92,83.07c2.37,1.81,4.82,4.25,5.44,5.43.41.78,4,3.43,9.06,6.73l6.2-1.88L6.35,68.51A64.12,64.12,0,0,0,19.92,83.07Z"/><path class="cls-50" d="M0,52.58l2.58-.89C1.32,49.88.15,50.07,0,52.58Z"/><path class="cls-51" d="M41.63,81.05c-8-1.52-16.86-4-20.07-5.72C15.29,72,6.91,62.07,4.06,54.58A13.24,13.24,0,0,0,2.6,51.69L0,52.58c0,.17,0,.34,0,.53,0,4,2.49,9.72,6.35,15.4L40.62,93.35Z"/><path class="cls-52" d="M34.42,95.23C36.13,96.35,38,97.54,40,98.76l.66-5.41Z"/></g></g></svg>