<svg xmlns="http://www.w3.org/2000/svg" viewBox="0 0 1205.51 1257.99"><defs><style>.cls-1{font-size:249.47px;}.cls-1,.cls-2,.cls-4{fill:#fff;font-family:Lato-Black, Lato;font-weight:800;}.cls-2{font-size:245.45px;}.cls-3{fill:#fff;}.cls-4{font-size:132.39px;}.cls-5{letter-spacing:-0.02em;}.cls-6{fill:none;stroke:#fff;stroke-miterlimit:10;stroke-width:9px;}.cls-7{fill:#e02614;}.cls-8{fill:#dd2e14;}.cls-9{fill:#df5f11;}.cls-10{fill:#e88202;}.cls-11{fill:#98d1cd;}.cls-12{fill:#f18907;}.cls-13{fill:#e63a12;}.cls-14{fill:#e73e17;}.cls-15{fill:#ee7714;}.cls-16{fill:#f2da4c;}.cls-17{fill:#ec6319;}.cls-18{fill:#c8e1bc;}.cls-19{fill:#ffd207;}.cls-20{fill:#f7e938;}.cls-21{fill:#f59c1a;}.cls-22{fill:#f3921b;}.cls-23{fill:#cbdc85;}.cls-24{fill:#8dc9a2;}.cls-25{fill:#a0ce9b;}.cls-26{fill:#a0cd8e;}.cls-27{fill:#ffce05;}.cls-28{fill:#f0d03b;}.cls-29{fill:#f6e63a;}.cls-30{fill:#c6d873;}.cls-31{fill:#f9b216;}.cls-32{fill:#b6ba95;}.cls-33{fill:#c3b367;}.cls-34{fill:#d3bf52;}.cls-35{fill:#f3931a;}.cls-36{fill:#f59a15;}.cls-37{fill:#f6a119;}.cls-38{fill:#ee761b;}.cls-39{fill:#ec6613;}.cls-40{fill:#bd5125;}.cls-41{fill:#e0710d;}.cls-42{fill:#f18619;}.cls-43{fill:#ee751b;}.cls-44{fill:#c23117;}.cls-45{fill:#d54415;}.cls-46{fill:#ec6419;}.cls-47{fill:#ee731c;}.cls-48{fill:#ed6919;}.cls-49{fill:#e95116;}.cls-50{fill:#e84e0f;}.cls-51{fill:#de1f14;}.cls-52{fill:#e74310;}.cls-53{fill:#eb6013;}</style></defs><title>Fichier 1</title><g id="Calque_2" data-name="Calque 2"><g id="Calque_1-2" data-name="Calque 1"><text class="cls-1" transform="translate(342.09 951.04) scale(1.17 1)">K</text><text class="cls-2" transform="translate(554.09 953.6) scale(0.99 1)">D</text><path id="path1657" class="cls-3" d="M216.63,950.51c-.44-.72.66-4.86,2.44-9.21,6.33-15.48,14.56-52,17.47-77.54,1.79-15.76.66-45.41-2.26-59.41-6.34-30.32-21.21-58.05-34.89-65.06-8.33-4.26-13.29-4.47-22-.93-14.1,5.69-20.06,10.29-38.06,29.35-18.89,20-27.8,36.17-34,61.65-3.62,14.91-4.78,17.8-6.47,16.09-1.41-1.43.12-10.15,4.74-27.05s10-31,20-52.63c8-17.19,12.66-29,23.53-59.76,6.65-18.79,32.21-68.13,52.55-101.43l6-9.85-11.53-6.07c-21.57-11.37-37.49-23.57-56.08-43-6.65-6.94-15.14-16.48-18.87-21.21-7.34-9.32-14.55-23.48-15.73-30.9-.86-5.4-1.54-4.66,13.84-15.1,22.25-15.11,51.07-26.22,84-32.38,31.85-6,53.35-14.77,90.79-37.19,17.28-10.36,28.69-19.23,37-28.82,7.06-8.11,32.13-30.51,45.7-40.83a216.71,216.71,0,0,1,58.46-30.76c4.83-1.6,20.85-4.83,36.23-7.3,28.82-4.63,38.55-6.93,51.68-12.22s19.82-9.16,30.57-17.69c20.42-16.21,58.59-43.73,65.87-47.49s25.55-17.08,36.21-26.45c6.73-5.91,13.73-10.92,18.55-13.28,8.77-4.29,20.88-6.65,25.31-4.94,5.2,2,14,23.6,14,34.33,0,3.55.8,4.85,6.11,9.9,7.09,6.74,9.54,11.62,11.34,22.59a49.75,49.75,0,0,1,.06,17c-2.66,19.4-12.85,54.59-23.39,80.81-5.42,13.48-7.18,24.85-5.09,32.88,1.37,5.3,4,5.42,8.17.37,8.79-10.51,21.57-23.14,30-29.6l9.19-7.07,6.22,6.64c10.24,10.92,14.48,22.25,15.67,41.89a90.37,90.37,0,0,1-4.44,34.65c-5.28,15.79-12.32,27.48-38.34,63.64-34.56,48-39.68,56.38-49.6,80.6-17.21,42-23.45,83.19-20.23,133.39.56,8.64.5,13.09-.14,12-3.31-5.33-6.17-41.17-5.11-64.11.39-8.45,1.63-22.89,2.77-32.11,2.59-21.16,2.6-27.17,0-32-2.4-4.54-5.88-6-11.61-5-3.47.63-6,2.58-14,10.9-15,15.63-27.38,39.37-27.52,52.8,0,3.82-.72,6.32-2.25,8.23l-2.2,2.74.69-6c2.11-18.44,8.21-37.57,15.78-49.5,15-23.65,31.93-40.57,61.84-61.82,18-12.75,34.87-32.87,45.27-53.86,15.4-31.09,19.49-70.91,8.93-87-3.22-4.93-9.54-9.14-13.53-9-6.78.2-15.61,5-28.61,15.5-7.23,5.85-24.46,19.66-38.29,30.68s-25.91,21.24-26.86,22.7a120.53,120.53,0,0,0-5.82,13.38c-3.88,10.13-4.15,10.53-5,7.42-1.58-5.65-.71-24.65,1.66-36.38,4.46-22,13.43-42.77,24.64-56.94,18.89-23.89,29.44-41,33.4-54.17,4.3-14.32,9.48-27.54,17.66-45,15.32-32.8,15.7-54.09,1.07-60.91-4.8-2.24-5.08-2.93-2.8-7,2.71-4.82,1.61-13.11-2.07-15.6-2.2-1.49-6-.85-8.22,1.36-3.1,3.15-2.71,7.28,1,11.08,1.92,1.94,2.95,3.91,2.58,4.9s-4.1,3.46-8.33,5.65c-13,6.69-22.37,5.32-24-3.49a14.61,14.61,0,0,1,1-7.53c1.58-3.86,1.57-4-.37-2.93-3,1.62-8.34,8.57-10.92,14.15-1.24,2.68-3.86,13.31-5.83,23.61-5,26.34-5.6,28.36-11.51,40.81a190.18,190.18,0,0,1-24.15,37.8c-9.44,11.6-16.11,21.73-21.52,32.73-9.07,18.41-12.4,32.05-12.42,50.85,0,10.78-1.16,11.57-3.82,2.63-2.61-8.75-3.24-25.11-1.32-34.21,2.21-10.49,13.39-42.1,23-64.95,9.34-22.26,10.55-26.58,9.9-35.54-.44-6.07-.88-7.09-4.45-10.4-5-4.68-8.69-4.74-17.38-.26-13.51,7-26.84,19.57-32.94,31.16a85.94,85.94,0,0,1-5.57,9.32l-2.1,2.74,0-6.17c0-8.31-.9-8.88-11.42-7.52A116,116,0,0,0,486,304.72c-7.06,2.95-8.35,4-12.69,10.17-2.66,3.78-4.84,7.89-4.84,9.12s1.3,3.81,2.89,5.71c4,4.77,2.18,5.72-8.83,4.67-14.77-1.41-17.76-1-26.27,3.53-9.27,4.95-14,10-19.1,20.27a76.34,76.34,0,0,0-8.52,35.45c0,5.88-.39,10.29-.87,9.8s-2.81-8.62-5.16-18.07-5.11-18.93-6.11-21.08c-2.11-4.48-11.71-13.43-15.45-14.39s-9.65,1.23-18.58,7.19c-9.82,6.55-18.13,15-31.9,32.5-17.47,22.18-24.36,39.7-24.58,62.5-.13,13.87,1.23,20.55,6.63,32.63,2.1,4.68,3.52,8.81,3.16,9.17-1.37,1.4-4-.81-9.13-7.66-13.77-18.4-24.62-26.84-41.95-32.65-6.72-2.25-9.6-2.53-25.42-2.49-20,.05-33.66,2.24-52,8.33-24.13,8-38.93,18.77-46,33.4-2.81,5.86-3.15,7.71-3.15,17,0,9.51.33,11.08,3.6,18.08,8.76,18.73,31,41.19,50.56,51.19,6.1,3.11,20.47,7.86,27.16,9,8.22,1.36,20.41-4.6,30.53-14.93l4.69-4.78-.42-9.94c-.34-8.21-1-11-3.47-16a65.52,65.52,0,0,0-19.69-23.43c-6.38-4.61-8.08-5.3-14.3-5.84q-13.59-1.2,4.68-5.08c10.31-2.18,19.74-1.68,26.69,1.43,7.38,3.3,21.62,13.18,34.43,23.9,12.55,10.5,20.09,14.61,32.89,17.91,15.84,4.09,26.63,2.46,25.08-3.78-.32-1.3-.91-7.77-1.31-14.36-1.94-32.43,8.21-70.49,23.26-87.17l5.38-6-2.62,6.19c-15.75,37.27-16.34,79.4-1.58,111.28,7.83,16.91,12.92,22.27,21.13,22.26,9.22,0,15.65-6.71,20.28-21.16,2-6.12,2.21-10,2.38-38.6.31-50.29,2.69-64.46,17.17-102.38,5-13.19,11.36-30,14-37.34,5.65-15.41,7.29-18.89,11.43-24.25,3.7-4.78,5.51-5.72,28.58-14.83,10.15-4,20.22-8.74,22.49-10.55,3.57-2.88,9.05-5.31,11.94-5.32.51,0-3.38,3.39-8.64,7.52-10.89,8.56-15.66,13.22-19.52,19.05-2.08,3.14-4,4.45-8.26,5.75-18.49,5.57-31.36,19.77-39.35,43.39-8.28,24.48-15,61.64-13.79,75.79,1.4,15.87,7.88,28.68,17.71,35,6.32,4,10.05,4.06,15.76,0,5.86-4.12,19.85-18.88,24.55-25.9,7-10.45,26-46.09,27.66-52,1.26-4.36,1.58-8.83,1.2-16.6-.6-12.48-2.49-16.73-9-20.4-4.56-2.55-17.25-5.08-21.3-4.24-1.34.28-4.58.8-7.2,1.16-4.1.57-4.58.44-3.44-.95.72-.88,5.78-3.84,11.24-6.56,20.51-10.21,28.9-21.79,43-59.37l4.12-11,0,5.72a36.35,36.35,0,0,1-2.09,11.21,132.94,132.94,0,0,0-4.42,16.76c-2,10-2.19,13.12-1.43,28.25,1.55,30.83,1.18,56.52-1,66.7-5.27,25-15,44.83-33,67.61-17.16,21.7-34.14,50.36-40.44,68.3-7.77,22.09-9.91,50.51-5.1,67.67,3.32,11.82,11.65,28.8,26,53.05,12.91,21.77,17.29,31.14,24.85,53.23,4.57,13.35,4.9,15.1,5.31,27.94.29,9.27,0,15.66-1,19.73l-1.48,6-.65-4.93c-.35-2.71-1.19-10.25-1.86-16.76-2.19-21.28-8.55-38.66-21.19-57.86C461,714.12,449.45,702.05,432.65,689c-34.24-26.71-62.29-61.61-80.25-99.88-6.23-13.26-8-18.82-8-24.76a8,8,0,0,0-2-5.78c-1.9-1.74-2.51-1.51-11.62,4.33-11.84,7.6-36.41,19.82-50.16,25a234.34,234.34,0,0,1-23.25,6.89c-11.1,2.61-15.44,3.07-30,3.15-19.55.12-17.25-1.6-19.31,14.37-1.53,11.8-.75,31.73,1.69,43.3,2.84,13.48,5.77,21.41,15.78,42.73,17.48,37.21,28.23,65.33,32,83.82,2.7,13.08,3.26,36,1.21,49.64a355.72,355.72,0,0,1-31.41,101.66c-7.72,16.17-9.52,19.07-10.7,17.14Zm337.46-209c-4.29-6.62-11.23-22.26-14.91-33.62-10.27-31.67-15.35-76.71-11.91-105.44,1.7-14.14,2.91-17.46,2.93-8,0,7.22,2.61,17,4.51,17s5.5-5.58,9.58-14.53A160.44,160.44,0,0,1,567,561.45c15.44-18,23-28,26.45-35.14,2-4.2,4.77-8.61,6.06-9.78l2.33-2.15-1.06,2.85c-2.57,6.87-10.16,20.95-15.88,29.47l-13,19.35c-22,32.86-33.3,81.38-28.4,122.06,1.39,11.54,5.64,29.17,9.27,38.43,4.71,12,5.52,21.47,1.28,14.93Z"/><text class="cls-4" transform="translate(0 1060.11) scale(0.79 1)"><tspan class="cls-5">K</tspan><tspan x="91.21" y="0">ongo Dervilon</tspan></text><path class="cls-6" d="M345.37,1152.29c2.63,3.45,5.63,6.45,7.63,10.45,23,30,53,50,88,63,6,2,11,4,17,5h5c3,1,5,2,8,2,153,12,305,15,458,20q36,1.5,72,0c54-3,106-29,139-72,34-36,55-83,61-132-1-30-1-61-3-91-2-38-3-75-6-113-14-227-29-452-44-678-19,0-38,1-58-2-31-5-60-8-89-18-15-5-30-5-44-11-6-2-13-2-19-4-76-20-147-40-220-64-19-7-37-13-56-18-34-10-65-20-99-29-33-7-64-18-98-16-5,1-11,2-15,7-4,6-2,14,0,20,6,15,20,24,29,36.58a26.56,26.56,0,0,1-4.82-4.47A25.22,25.22,0,0,1,479,68.32c-5-5.58-12-9.58-19-14.58-2-1-4-1-6-2-20-12-41-16-63-16-17,1-33,3-49,9-13,6-26,11-38,20-9,85-4,171-4.29,257.31"/><path class="cls-7" d="M1109.77,866.22c-1.55-.5-1.71-5.19-1.31-6.45,1.73-5.37-3.13-.46-7.43,5.94-4.6,6.85-14.63,16.92-26.88,27.56l.45,18.09Z"/><path class="cls-8" d="M1098.82,910.2a2.84,2.84,0,0,0,1.07-1.67c0-1.35-1-3,.25-4.18a8.8,8.8,0,0,0,2.2-5.44c0-1.85,1.93-4.45,4.48-6,3-1.83,7.27-5.28,7-7.41-.25-1.78-2.06-3.61-.45-5.79,2.09-2.82,2.41-4.18,1.1-4.73-1-.42-.66-7.28-.66-9.23s-2.39,1-4,.51h0l-35.17,45.14Z"/><path class="cls-9" d="M1087.44,919.42a33.39,33.39,0,0,1,6.52-5.8,25,25,0,0,0,4.86-3.42l-24.22,1.16Z"/><path class="cls-10" d="M1076.71,932.68c2.29-2.84,4.75-5.95,7.33-9.27,1-1.35,2.22-2.72,3.4-4l-12.84-8.06Z"/><path class="cls-11" d="M1039.78,1044.71a4.49,4.49,0,0,0,3.62-3.84l-3.75,3.06Z"/><path class="cls-12" d="M1059.74,946.51l3.74,1.61c2.72-2.74,7.42-8.23,13.23-15.44l-2.11-21.32Z"/><path class="cls-13" d="M1059,905.79q-2,1.59-4,3.15l.91,8.95Z"/><path class="cls-14" d="M1074.6,911.36l-.45-18.09c-4.77,4.14-9.88,8.37-15.13,12.52l-3.11,12.1Z"/><polygon class="cls-15" points="1055.91 917.89 1059.74 946.51 1074.6 911.36 1055.91 917.89"/><path class="cls-16" d="M1060,953.17c.65-.2,1.11-.49,1.11-.89,0-1-.77-2.22,0-2.22.32,0,1.15-.68,2.39-1.94l-3.74-1.61Z"/><path class="cls-17" d="M1055,908.94q-3.74,2.88-7.51,5.68l8.42,3.27Z"/><path class="cls-18" d="M1043.4,1040.87a5.05,5.05,0,0,0-1.44-3.75,31.76,31.76,0,0,0-5.69-3.62l3.38,10.43Z"/><path class="cls-19" d="M1035.57,974.32c.48-1.71,1.74-2.58,3-2s2.5-.25,3-1.74,1.81-2.27,3-1.75a1.7,1.7,0,0,0,1.12.15l1-1.57h0c0-1.31,1.67-4.25,3.67-6.52s3.65-4.85,3.65-5.71c0-.53.48-1,1.21-1.28l4.65-7.36-45.92-9.86-.55.31L1023,987.1C1026.59,984.84,1034.93,976.63,1035.57,974.32Z"/><path class="cls-20" d="M1046.56,967.39l-1,1.57A1.48,1.48,0,0,0,1046.56,967.39Z"/><path class="cls-20" d="M1055.09,953.87a4.8,4.8,0,0,1,1.72-.3,12,12,0,0,0,3.2-.4l-.27-6.66Z"/><path class="cls-21" d="M1055.91,917.89l-39.1,17-3,1.72,45.92,9.86Z"/><path class="cls-22" d="M1047.49,914.62a319.89,319.89,0,0,1-28.13,18.82l-2.55,1.49,39.1-17Z"/><path class="cls-23" d="M1039.65,1043.93l-3.38-10.43c-3.2-1.78-7.4-3.93-11.77-6l-1.25-.6-1.25,14Z"/><path class="cls-24" d="M1015.83,1073.19c3.67,2.33,7.21,1,7.21-2.68a2.66,2.66,0,0,1,.14-.85l-7.33,1.37Z"/><path class="cls-25" d="M1022,1040.87l17.11,20c1.43-1.92.74-5.43-2.17-10l-3.77-5.93h4.52a7.92,7.92,0,0,0,2.09-.26l-.13-.78Z"/><path class="cls-26" d="M1015.85,1071l7.33-1.37a2.89,2.89,0,0,1,2.84-1.84,4.22,4.22,0,0,0,3.83-2.63c.47-1.47,2.65-2.64,4.93-2.64,2.09,0,3.54-.58,4.33-1.65l-17.11-20Z"/><path class="cls-27" d="M1001.32,992.4l3.23-5.2,4.17,2.94c3.42,2.42,4.38,2.53,5.38.58s1.46-1.91,2.37-.16,1.5,1.63,2.75-.42c.89-1.45,1.94-2.57,2.35-2.48a2.54,2.54,0,0,0,1.42-.56L1013.27,937l-.47.27-26.44,50.14Z"/><path class="cls-28" d="M975.22,1038.93l46.78,1.94-15.4-23.12c-7-4.51-11.34-8.48-11.77-11.12-.14-.84.35-2.59,1.23-4.7l-9.7-14.56Z"/><path class="cls-29" d="M996.06,1001.93a49.06,49.06,0,0,1,3.38-6.5l1.88-3-15-5Z"/><path class="cls-29" d="M1023.25,1026.89a161.46,161.46,0,0,1-16.65-9.14l15.4,23.12Z"/><polygon class="cls-30" points="1022 1040.87 975.22 1038.93 1015.85 1071.03 1022 1040.87"/><path class="cls-31" d="M986.36,987.37l26.44-50.14c-20.35,11.57-28.08,14.14-32.73,9.35l-15.3,4.66Z"/><path class="cls-32" d="M1001.29,1082.58l-5.27,4.18C998.78,1087.38,999.83,1086.58,1001.29,1082.58Z"/><path class="cls-32" d="M1005.74,1079.52c3.21,3.83,7,1.77,7-3.79a20.37,20.37,0,0,1,.09-2.32l-7.34,5.83Z"/><path class="cls-32" d="M1014.25,1072.3a10.81,10.81,0,0,1,1.56.87l0,0,0-2.16Z"/><path class="cls-33" d="M966.51,1068.8l4.57,16.48a6.6,6.6,0,0,0,1.32.12c2,0,3.64.9,3.64,2,0,1.26,1.59,1.6,4.35.94,2.39-.57,4.75-.28,5.23.66h0a3.27,3.27,0,0,0,6-.68c.47-1.45,2.16-2.06,4.36-1.56l.08,0,5.27-4.18c.05-.15.11-.3.16-.46,1.7-4.83,2.08-5.2,4.06-2.88l7.34-5.83c.15-1.18.52-1.47,1.4-1.11l1.6-1.27Z"/><polygon class="cls-34" points="1015.85 1071.03 975.22 1038.93 966.51 1068.81 1015.85 1071.03"/><path class="cls-35" d="M980.07,946.58a18,18,0,0,1-3.38-5.68,30.05,30.05,0,0,0-5.11-8.21l-6.81,18.55Z"/><path class="cls-36" d="M986.36,987.37l-42.26-.28a5.2,5.2,0,0,1,.21.55l6.37,10.56a24.24,24.24,0,0,0,1.88-2.45l4-5.86,1.77,6.43c1,3.54,1.38,7.91.9,9.71a12.68,12.68,0,0,1-1.94,3.15l17.93,29.75Z"/><path class="cls-37" d="M964.77,951.24,944.05,987l.05.11,42.26.28Z"/><path class="cls-38" d="M971.58,932.69c-2-2.24-4.13-3.65-5.82-3.68-3.57,0-13.21,3.53-13.21,4.89,0,.7,1.48,2,3.3,3,2.42,1.27,3.17,2.91,2.79,6.12h0l6.13,8.22Z"/><path class="cls-39" d="M957.29,1009.18a134.27,134.27,0,0,1-10.72,12.18c-8.47,8.66-11.06,12-11.36,15.11l40,2.46Z"/><path class="cls-39" d="M944.87,994.16c-.85,7,1.86,8.49,5.81,4l-6.37-10.56A14.41,14.41,0,0,1,944.87,994.16Z"/><path class="cls-40" d="M960.44,1079.41a5.29,5.29,0,0,0,3.81-1c2.2-1.4,2.84-.93,3.59,2.65.54,2.59,1.47,3.85,3.24,4.23l-4.57-16.48Z"/><path class="cls-41" d="M975.22,1038.93l-40-2.46a8.31,8.31,0,0,0,0,1.41c.29,3,1.28,4.39,3,4.23,1.89-.18,2.57,1.07,2.57,4.73v.29l25.71,21.67Z"/><path class="cls-42" d="M931.21,955.41l12.36,30.65a9.91,9.91,0,0,1,.48.92l20.72-35.74Z"/><path class="cls-43" d="M964.77,951.24,958.64,943c-1,8.91-5,10.85-12.51,6.14-3.16-2-8.1-3.89-14.69-5.74l-.23,12Z"/><path class="cls-44" d="M956.94,1071.77c0,.34,0,.71,0,1.11,0,3.8,1.38,6.13,3.49,6.53l6.07-10.61Z"/><path class="cls-45" d="M940.8,1047.13c.08,4.57,2,7.42,5.14,7.52.8,0,1.26,1.77,1,3.9-.76,6.53,2.36,11.51,6.44,10.28,2.87-.86,3.46-.55,3.54,2.94l9.57-3Z"/><path class="cls-46" d="M931.21,955.41l.23-12c-4.84-1.36-10.58-2.67-17.14-3.92L908,950.82Z"/><path class="cls-47" d="M921.35,964.77c13.63,8.37,14.46,9.38,13.92,11.29-.32,1.18.59,2.13,2,2.13,2,0,2.22.47.85,2.11-2.56,3.07-2.15,4.72.91,3.76,1.83-.57,3.43.26,4.51,2l-12.36-30.65Z"/><path class="cls-48" d="M908,950.82l-.67,5.41q1.48.93,3,1.86c4.37,2.64,8,4.84,11,6.68l9.86-9.36Z"/><path class="cls-49" d="M914.3,939.5q-2-.39-4.08-.75l-1.22-.23-1,12.3Z"/><path class="cls-50" d="M887.29,940.55c2.37,1.81,4.82,4.25,5.44,5.42.41.78,4,3.44,9.06,6.74l6.2-1.89L873.72,926A64.38,64.38,0,0,0,887.29,940.55Z"/><path class="cls-51" d="M867.38,910.05l2.59-.89C868.68,907.35,867.52,907.54,867.38,910.05Z"/><path class="cls-52" d="M909,938.52c-8-1.51-16.86-4-20.07-5.72-6.27-3.32-14.65-13.25-17.5-20.75a13.7,13.7,0,0,0-1.46-2.89l-2.59.89c0,.17,0,.34,0,.53,0,4,2.49,9.73,6.35,15.4L908,950.82Z"/><path class="cls-53" d="M901.79,952.71c1.71,1.11,3.57,2.31,5.53,3.52l.67-5.41Z"/><path class="cls-6" d="M384.24,1091.74c2.35,3.09,5,5.78,6.84,9.36,20.62,26.87,47.53,44.79,78.92,56.43,5.38,1.79,9.86,3.59,15.24,4.48h4.48c2.7.9,4.49,1.79,7.18,1.79,137.21,10.75,273.52,13.44,410.73,17.92q32.28,1.33,64.57,0c48.43-2.69,95.06-26,124.65-64.49,30.49-32.25,49.33-74.35,54.71-118.24-.9-26.87-.9-54.64-2.69-81.51-1.8-34-2.69-67.18-5.38-101.22-12.56-203.33-26-404.87-39.46-607.3-17,0-34.08.89-52-1.79-27.8-4.48-53.8-7.17-79.81-16.13-13.45-4.47-26.9-4.47-39.46-9.85-5.38-1.79-11.66-1.79-17-3.58-68.16-17.92-131.83-35.83-197.29-57.33-17-6.27-33.18-11.64-50.22-16.12-30.49-9-58.3-17.92-88.79-26C549.81,71.91,522,62.06,491.52,63.85c-4.49.9-9.87,1.79-13.45,6.27-3.59,5.38-1.8,12.54,0,17.92,5.38,13.43,17.93,21.49,26,32.77a23.89,23.89,0,0,1-4.32-4,22.86,22.86,0,0,1,4.32,4c-4.45-5-10.73-8.59-17-13.07-1.79-.89-3.58-.89-5.38-1.79-17.93-10.75-36.76-14.33-56.49-14.33-15.25.89-29.6,2.69-44,8.06-11.66,5.37-23.31,9.85-34.07,17.91-8.08,76.14-3.59,153.17-3.85,230.49"/></g></g></svg>